<svg width="1440" height="1024" viewBox="0 0 1440 1024" fill="none" xmlns="http://www.w3.org/2000/svg">
<path d="M364.289 730.46C364.289 931.882 343.647 1114.07 310.361 1245.75C293.708 1311.63 273.959 1364.58 252.225 1400.95C230.299 1437.64 207.307 1455.92 184.645 1455.92C161.983 1455.92 138.99 1437.64 117.065 1400.95C95.3301 1364.58 75.5815 1311.63 58.9287 1245.75C25.6423 1114.07 5 931.882 5 730.46C5 529.038 25.6423 346.854 58.9287 215.172C75.5815 149.293 95.3301 96.3356 117.065 59.9682C138.99 23.2815 161.983 5 184.645 5C207.307 5 230.299 23.2815 252.225 59.9682C273.959 96.3356 293.708 149.293 310.361 215.172C343.647 346.854 364.289 529.038 364.289 730.46Z" transform="matrix(-0.407781 -0.913079 0.882602 -0.470121 150.589 1024)" fill="#FFF8D9" stroke="#FCD32D" stroke-width="10"/>
<path d="M261.083 642.749C261.083 820.005 246.208 980.336 222.22 1096.23C210.217 1154.21 195.986 1200.81 180.336 1232.79C172.507 1248.79 164.446 1260.87 156.339 1268.88C148.247 1276.88 140.471 1280.5 133.042 1280.5C125.612 1280.5 117.836 1276.88 109.744 1268.88C101.637 1260.87 93.5767 1248.79 85.7469 1232.79C70.0973 1200.81 55.8658 1154.21 43.8632 1096.23C19.875 980.336 5 820.005 5 642.749C5 465.493 19.875 305.162 43.8632 189.27C55.8658 131.283 70.0973 84.6869 85.7469 52.7082C93.5767 36.7087 101.637 24.6288 109.744 16.6141C117.836 8.61468 125.612 5 133.042 5C140.471 5 148.247 8.61468 156.339 16.6141C164.446 24.6288 172.507 36.7087 180.336 52.7082C195.986 84.6869 210.217 131.283 222.22 189.27C246.208 305.162 261.083 465.493 261.083 642.749Z" transform="matrix(-0.407781 -0.913079 0.882602 -0.470121 206.532 935.892)" fill="white" stroke="#FCD32D" stroke-width="10"/>
</svg>
