<svg width="1440" height="1024" viewBox="0 0 1440 1024" fill="none" xmlns="http://www.w3.org/2000/svg"><path d="M364.289 730.46c0 201.422-20.642 383.61-53.928 515.29-16.653 65.88-36.402 118.83-58.136 155.2-21.926 36.69-44.918 54.97-67.58 54.97s-45.655-18.28-67.58-54.97c-21.735-36.37-41.483-89.32-58.136-155.2C25.642 1114.07 5 931.882 5 730.46c0-201.422 20.642-383.606 53.929-515.288C75.582 149.293 95.33 96.336 117.065 59.968 138.99 23.281 161.983 5 184.645 5s45.654 18.282 67.58 54.968c21.734 36.368 41.483 89.325 58.136 155.204 33.286 131.682 53.928 313.866 53.928 515.288z" transform="matrix(-.40778 -.91308 .8826 -.47012 150.589 1024)" fill="#FFF8D9" stroke="#FCD32D" stroke-width="10"/><path d="M261.083 642.749c0 177.256-14.875 337.587-38.863 453.481-12.003 57.98-26.234 104.58-41.884 136.56-7.829 16-15.89 28.08-23.997 36.09-8.092 8-15.868 11.62-23.297 11.62-7.43 0-15.206-3.62-23.298-11.62-8.107-8.01-16.167-20.09-23.997-36.09-15.65-31.98-29.881-78.58-41.884-136.56C19.875 980.336 5 820.005 5 642.749 5 465.493 19.875 305.162 43.863 189.27 55.866 131.283 70.097 84.687 85.747 52.708c7.83-16 15.89-28.08 23.997-36.094C117.836 8.614 125.612 5 133.042 5c7.429 0 15.205 3.615 23.297 11.614 8.107 8.015 16.168 20.095 23.997 36.094 15.65 31.979 29.881 78.575 41.884 136.562 23.988 115.892 38.863 276.223 38.863 453.479z" transform="matrix(-.40778 -.91308 .8826 -.47012 206.532 935.892)" fill="#fff" stroke="#FCD32D" stroke-width="10"/></svg>